# xmcd
#
# Track frame offsets:
#	150
#	10729
#	24112
#	38678
#	48652
#	61488
#	76239
#	94374
#	114151
#	124806
#	137795
#	152329
#	162442
#	175033
#	189737
#	207825
#
# Disc length: 3032 seconds
#
# Revision: 1
# Processed by: cddbd v1.5.2PL0 Copyright (c) Steve Scherf et al.
# Submitted via: audiograbber 1.83.01
#
DISCID=c70bd610
DTITLE=CCR and Dan Fogelberg - SDK9022
DYEAR=1900
DGENRE=Karaoke
TTITLE0=Creedence Clearwater Revival - Bad Moon Rising (w vocals)
TTITLE1=Creedence Clearwater Revival - Down on the Corner (w vocals)
TTITLE2=Creedence Clearwater Revival - Proud Mary (w vocals)
TTITLE3=Creedence Clearwater Revival - Travelin' Band (w vocals)
TTITLE4=Creedence Clearwater Revival - Up Around the Bend (w vocals)
TTITLE5=Fogelberg, Dan - Longer (w vocals)
TTITLE6=Fogelberg, Dan - Hard to Say (w vocals)
TTITLE7=Fogelberg, Dan - Leader of the Band (w vocals)
TTITLE8=Creedence Clearwater Revival - Bad Moon Rising
TTITLE9=Creedence Clearwater Revival - Down on the Corner
TTITLE10=Creedence Clearwater Revival - Proud Mary
TTITLE11=Creedence Clearwater Revival - Travelin' Band
TTITLE12=Creedence Clearwater Revival - Up Around the Bend
TTITLE13=Fogelberg, Dan - Longer
TTITLE14=Fogelberg, Dan - Hard to Say
TTITLE15=Fogelberg, Dan - Leader of the Band
EXTD=
EXTT0=
EXTT1=
EXTT2=
EXTT3=
EXTT4=
EXTT5=
EXTT6=
EXTT7=
EXTT8=
EXTT9=
EXTT10=
EXTT11=
EXTT12=
EXTT13=
EXTT14=
EXTT15=
PLAYORDER=
